<svg width="669" height="975" viewBox="0 0 669 975" fill="none" xmlns="http://www.w3.org/2000/svg">
<path d="M591.022 16.1022C547.706 35.053 505.272 88.0097 474.208 121.122C387.584 213.457 312.124 323.654 252.935 435.621C186.112 562.033 150.933 721.416 141.457 863.565C140.609 876.273 133.69 937.569 146.792 904.562C195.919 780.8 240.35 656.908 299.548 537.272C369.765 395.369 437.486 250.305 538.512 127.019C570.638 87.8146 608.369 44.1198 648.306 12.1709C652.446 8.85859 667.328 3.24254 663.188 6.55486C506.661 131.776 369.572 271.298 270.345 446.854C217.149 540.97 184.192 643.302 163.64 748.997C158.83 773.734 146.23 794.81 146.23 819.76" stroke="#FE654F" stroke-width="10" stroke-linecap="round"/>
<path d="M29.9778 597.364C38.8068 669.762 71.6108 739.706 94.2816 808.528C103.159 835.476 110.925 862.841 120.958 889.399C123.107 895.089 124.14 915.923 131.909 914.952C166.512 910.627 238.705 848.16 260.798 834.362C362.38 770.917 466.222 708.014 576.982 661.668C590.279 656.104 632.351 646.803 617.979 647.909C580.836 650.766 539.035 667.579 504.534 678.235C422.112 703.695 324.164 721.067 256.305 777.078C233.649 795.778 204.428 823.371 179.084 837.45C172.258 841.243 157.423 856.666 148.757 848.963C126.793 829.44 116.53 772.036 104.671 746.189C88.086 710.042 64.1219 680.531 44.0179 646.785C36.5229 634.204 32.4881 615.599 22.1153 605.227C18.4411 601.552 13.6075 599.506 10.3216 595.398C-9.40015 570.746 37.5188 652.383 50.7572 681.043C92.0645 770.471 135.727 863.095 160.27 959.038C162.841 969.087 162.989 975.119 166.448 961.284" stroke="#FE654F" stroke-width="10" stroke-linecap="round"/>
</svg>
