<svg width="2247" height="2247" viewBox="0 0 2247 2247" fill="none" xmlns="http://www.w3.org/2000/svg">
<path d="M1523.19 388.485C1455.55 418.075 1389.3 500.765 1340.79 552.469C1205.53 696.646 1087.7 868.713 995.284 1043.55C890.942 1240.93 836.012 1489.8 821.215 1711.76C819.892 1731.6 809.087 1827.31 829.545 1775.78C906.255 1582.53 975.632 1389.07 1068.07 1202.27C1177.71 980.693 1283.45 754.182 1441.2 561.677C1491.36 500.46 1550.28 432.233 1612.64 382.346C1619.1 377.174 1642.34 368.405 1635.88 373.577C1391.47 569.105 1177.41 786.962 1022.47 1061.08C939.405 1208.04 887.944 1367.83 855.853 1532.87C848.343 1571.49 828.668 1604.4 828.668 1643.36" stroke="#FE654F" stroke-width="10" stroke-linecap="round"/>
<path d="M647.145 1296.1C660.932 1409.15 712.154 1518.36 747.553 1625.82C761.414 1667.9 773.541 1710.63 789.207 1752.1C792.563 1760.98 794.176 1793.52 806.307 1792C860.337 1785.25 973.065 1687.71 1007.56 1666.16C1166.18 1567.09 1328.32 1468.87 1501.27 1396.51C1522.03 1387.82 1587.72 1373.3 1565.28 1375.02C1507.29 1379.48 1442.02 1405.74 1388.14 1422.38C1259.45 1462.13 1106.5 1489.26 1000.55 1576.71C965.169 1605.91 919.541 1649 879.968 1670.98C869.31 1676.91 846.146 1700.99 832.615 1688.96C798.319 1658.48 782.293 1568.84 763.776 1528.48C737.879 1472.04 700.46 1425.96 669.069 1373.27C657.365 1353.62 651.065 1324.57 634.869 1308.38C629.131 1302.64 621.584 1299.44 616.453 1293.03C585.659 1254.54 658.92 1382.01 679.592 1426.76C744.091 1566.4 812.268 1711.03 850.591 1860.84C854.605 1876.53 854.837 1885.95 860.238 1864.35" stroke="#FE654F" stroke-width="10" stroke-linecap="round"/>
</svg>
