<svg width="669" height="974" viewBox="0 0 669 974" fill="none" xmlns="http://www.w3.org/2000/svg">
<path d="M77.8864 15.5572C121.203 34.508 163.636 87.4648 194.7 120.577C281.324 212.912 356.785 323.109 415.973 435.077C482.796 561.488 517.975 720.871 527.452 863.02C528.299 875.728 535.218 937.024 522.116 904.017C472.99 780.255 428.558 656.363 369.36 536.727C299.143 394.824 231.423 249.76 130.397 126.474C98.2705 87.2697 60.5388 43.5749 20.6027 11.626C16.4623 8.31367 1.57975 2.69762 5.72015 6.00994C162.247 131.231 299.336 270.753 398.563 446.309C451.759 540.425 484.716 642.757 505.268 748.452C510.078 773.189 522.678 794.265 522.678 819.215" stroke="#FE654F" stroke-width="10" stroke-linecap="round"/>
<path d="M638.93 596.819C630.101 669.217 597.297 739.161 574.627 807.983C565.749 834.931 557.983 862.296 547.95 888.854C545.801 894.544 544.768 915.378 536.999 914.407C502.397 910.082 430.203 847.615 408.111 833.817C306.528 770.372 202.686 707.469 91.9266 661.123C78.629 655.559 36.5571 646.258 50.9294 647.364C88.0718 650.221 129.874 667.034 164.374 677.69C246.796 703.15 344.744 720.522 412.603 776.533C435.26 795.233 464.48 822.826 489.824 836.905C496.65 840.698 511.485 856.121 520.151 848.418C542.115 828.895 552.378 771.491 564.237 745.645C580.822 709.497 604.786 679.986 624.89 646.24C632.385 633.66 636.42 615.054 646.793 604.682C650.467 601.007 655.301 598.961 658.587 594.853C678.308 570.201 631.389 651.838 618.151 680.498C576.844 769.927 533.182 862.55 508.638 958.493C506.067 968.542 505.919 974.574 502.46 960.74" stroke="#FE654F" stroke-width="10" stroke-linecap="round"/>
</svg>
