<svg width="2247" height="926" viewBox="0 0 2247 926" fill="none" xmlns="http://www.w3.org/2000/svg">
<path d="M558.518 304.826C712.223 394.487 877.863 501.518 1012.06 598.505C1069.52 640.027 1082.41 666.964 1108.18 679.967C1144.41 698.252 1182.65 634.942 1240.49 573.809C1442.85 359.898 1544.79 327.726 1623.97 293.618C1664.46 276.179 1703.35 256.405 1719.65 251.456C1804.03 225.84 1568.27 365.959 1506.41 421.075C1449.96 471.376 1412.63 511.706 1380.27 548.871C1316.97 621.568 1257.37 628.149 1210.45 654.058C1188.87 665.977 1089.89 596.71 933.222 469.059C724.061 353.538 594.227 311.327 570.017 306.476C558.615 304.826 549.008 304.826 539.111 304.826" stroke="currentColor" stroke-width="20" stroke-linecap="round"/>
<path d="M510 256.308C551.822 265.915 654.972 317.441 721.635 351.597C821.043 402.531 942.586 517.529 1012.84 569.977C1054.14 600.808 1082.41 644.355 1101.77 657.309C1139.17 682.331 1246.7 557.702 1332.91 484.585C1420.74 410.102 1467.16 379.35 1581.81 298.664C1635.43 260.93 1674.33 240.2 1669.68 243.305C1551.42 322.144 1490.26 398.369 1448.14 432.477C1418.87 456.188 1406.03 498.704 1381.82 537.567C1344.61 573.227 1318.7 605.443 1288.03 652.36C1279.88 663.762 1273.48 673.368 1247.47 683.266" stroke="currentColor" stroke-width="20" stroke-linecap="round"/>
</svg>
