<svg width="2247" height="2247" viewBox="0 0 2247 2247" fill="none" xmlns="http://www.w3.org/2000/svg">
<path d="M1523.19 387.485C1455.55 417.075 1389.3 499.765 1340.79 551.469C1205.53 695.646 1087.7 867.713 995.284 1042.55C890.942 1239.93 836.012 1488.8 821.215 1710.76C819.892 1730.6 809.087 1826.31 829.545 1774.78C906.255 1581.53 975.632 1388.07 1068.07 1201.27C1177.71 979.693 1283.45 753.182 1441.2 560.677C1491.36 499.46 1550.28 431.233 1612.64 381.346C1619.1 376.174 1642.34 367.405 1635.88 372.577C1391.47 568.105 1177.41 785.962 1022.47 1060.08C939.405 1207.04 887.944 1366.83 855.853 1531.87C848.343 1570.49 828.668 1603.4 828.668 1642.36" stroke="#FE654F" stroke-width="20" stroke-linecap="round"/>
<path d="M647.145 1295.1C660.932 1408.15 712.154 1517.36 747.553 1624.82C761.414 1666.9 773.541 1709.63 789.207 1751.1C792.563 1759.98 794.176 1792.52 806.307 1791C860.337 1784.25 973.065 1686.71 1007.56 1665.16C1166.18 1566.09 1328.32 1467.87 1501.27 1395.51C1522.03 1386.82 1587.72 1372.3 1565.28 1374.02C1507.29 1378.48 1442.02 1404.74 1388.14 1421.38C1259.45 1461.13 1106.5 1488.26 1000.55 1575.71C965.169 1604.91 919.541 1648 879.968 1669.98C869.31 1675.91 846.146 1699.99 832.615 1687.96C798.319 1657.48 782.293 1567.84 763.776 1527.48C737.879 1471.04 700.46 1424.96 669.069 1372.27C657.365 1352.62 651.065 1323.57 634.869 1307.38C629.131 1301.64 621.584 1298.44 616.453 1292.03C585.659 1253.54 658.92 1381.01 679.592 1425.76C744.091 1565.4 812.268 1710.03 850.591 1859.84C854.605 1875.53 854.837 1884.95 860.238 1863.35" stroke="#FE654F" stroke-width="20" stroke-linecap="round"/>
</svg>
