<svg width="2247" height="2247" viewBox="0 0 2247 2247" fill="none" xmlns="http://www.w3.org/2000/svg">
<path d="M723.809 387.485C791.445 417.075 857.703 499.765 906.209 551.469C1041.47 695.646 1159.3 867.713 1251.72 1042.55C1356.06 1239.93 1410.99 1488.8 1425.79 1710.76C1427.11 1730.6 1437.91 1826.31 1417.45 1774.78C1340.75 1581.53 1271.37 1388.07 1178.93 1201.27C1069.29 979.693 963.549 753.182 805.801 560.677C755.638 499.46 696.721 431.233 634.363 381.346C627.898 376.174 604.66 367.405 611.125 372.577C855.534 568.105 1069.59 785.962 1224.53 1060.08C1307.59 1207.04 1359.06 1366.83 1391.15 1531.87C1398.66 1570.49 1418.33 1603.4 1418.33 1642.36" stroke="#FE654F" stroke-width="20" stroke-linecap="round"/>
<path d="M1599.85 1295.1C1586.07 1408.15 1534.85 1517.36 1499.45 1624.82C1485.59 1666.9 1473.46 1709.63 1457.79 1751.1C1454.44 1759.98 1452.82 1792.52 1440.69 1791C1386.66 1784.25 1273.94 1686.71 1239.44 1665.16C1080.82 1566.09 918.678 1467.87 745.732 1395.51C724.969 1386.82 659.275 1372.3 681.717 1374.02C739.713 1378.48 804.985 1404.74 858.855 1421.38C987.554 1461.13 1140.5 1488.26 1246.45 1575.71C1281.83 1604.91 1327.46 1648 1367.03 1669.98C1377.69 1675.91 1400.85 1699.99 1414.39 1687.96C1448.68 1657.48 1464.71 1567.84 1483.22 1527.48C1509.12 1471.04 1546.54 1424.96 1577.93 1372.27C1589.63 1352.62 1595.93 1323.57 1612.13 1307.38C1617.87 1301.64 1625.42 1298.44 1630.55 1292.03C1661.34 1253.54 1588.08 1381.01 1567.41 1425.76C1502.91 1565.4 1434.73 1710.03 1396.41 1859.84C1392.39 1875.53 1392.16 1884.95 1386.76 1863.35" stroke="#FE654F" stroke-width="20" stroke-linecap="round"/>
</svg>
