<svg width="2247" height="2247" viewBox="0 0 2247 2247" fill="none" xmlns="http://www.w3.org/2000/svg">
<path d="M1145.75 425.161C1151.39 685.91 1164.61 946.434 1147.14 1207C1136.86 1360.23 1140.16 1514.07 1138.57 1667.48C1138.17 1706 1137.77 1744.53 1137.37 1783.05C1137.3 1789.94 1134.5 1810.32 1137.16 1803.7C1146.89 1779.49 1148.87 1754.04 1154.38 1729.17C1186.11 1585.97 1216.52 1442.97 1225.27 1297.9C1232.2 1183.08 1232.98 1067.93 1238.34 953.05C1243.51 842.1 1237.05 733.334 1220.25 622.817C1209.15 549.784 1194.7 476.954 1188.36 403.628C1186.79 385.479 1183.46 331.038 1186.39 349.113C1194.35 398.178 1195.95 448.579 1195.61 497.751C1194.35 680.175 1171.41 862.088 1157.05 1044.06C1146.68 1175.51 1144.18 1306.94 1138.41 1438.51C1131.83 1588.52 1119.24 1738.2 1124.89 1888.4" stroke="white" stroke-width="20" stroke-linecap="round"/>
<path d="M762 1527.72C838.672 1543.05 951.043 1667.79 1000.56 1728.31C1048.12 1786.44 1067.15 1854.43 1135.96 1785.62C1211.47 1710.1 1267.55 1617.42 1342.28 1540.61C1364.77 1517.49 1450.5 1428.93 1436.13 1441.03C1343.62 1518.93 1266.63 1617.12 1184.67 1705.38C1161.71 1730.11 1123.64 1771.64 1110.88 1803.53C1103.46 1822.09 1141.51 1777.81 1156.73 1764.84C1204.76 1723.93 1251.28 1680.91 1302.88 1644.49C1344.09 1615.4 1387.65 1573.09 1432.55 1550.64C1442.31 1545.76 1503.22 1521.8 1481.26 1530.58C1402.13 1562.23 1334.87 1657.94 1271.36 1713.98C1230.54 1749.99 1186.34 1807.19 1142.41 1836.48C1098.72 1865.61 1097.01 1865.16 1061.45 1808.54C1013.55 1732.26 935.697 1675.62 872.325 1612.25C847.64 1587.57 802.347 1569.72 787.79 1540.61" stroke="white" stroke-width="20" stroke-linecap="round"/>
<path d="M839.371 1450.34C901.325 1476.16 955.631 1581.68 994.112 1633.74C1028.64 1680.45 1057.92 1726.62 1090.11 1773.44C1112.23 1805.62 1161.75 1865.39 1161.75 1901.67" stroke="white" stroke-width="20" stroke-linecap="round"/>
</svg>
