<svg width="2247" height="2247" viewBox="0 0 2247 2247" fill="none" xmlns="http://www.w3.org/2000/svg">
<path d="M1648.1 1303.17C1494.39 1213.5 1328.75 1106.47 1194.55 1009.49C1137.1 967.964 1124.2 941.027 1098.44 928.025C1062.21 909.739 1023.96 973.049 966.129 1034.18C763.762 1248.09 661.824 1280.26 582.643 1314.37C542.159 1331.81 503.268 1351.59 486.966 1356.54C402.581 1382.15 638.341 1242.03 700.202 1186.92C756.658 1136.62 793.987 1096.28 826.349 1059.12C889.649 986.424 949.244 979.842 996.161 953.933C1017.74 942.014 1116.73 1011.28 1273.39 1138.93C1482.55 1254.45 1612.39 1296.66 1636.6 1301.52C1648 1303.17 1657.61 1303.17 1667.5 1303.17" stroke="#FE654F" stroke-width="20" stroke-linecap="round"/>
<path d="M1696.61 1351.68C1654.79 1342.08 1551.64 1290.55 1484.98 1256.39C1385.57 1205.46 1264.03 1090.46 1193.77 1038.01C1152.48 1007.18 1124.2 963.637 1104.84 950.682C1067.45 925.661 959.918 1050.29 873.702 1123.41C785.874 1197.89 739.452 1228.64 624.805 1309.33C571.187 1347.06 532.281 1367.79 536.939 1364.69C655.197 1285.85 716.358 1209.62 758.471 1175.51C787.748 1151.8 800.585 1109.29 824.796 1070.42C862.009 1034.76 887.917 1002.55 918.581 955.631C926.732 944.229 933.136 934.623 959.142 924.725" stroke="#FE654F" stroke-width="20" stroke-linecap="round"/>
</svg>
