<svg width="2247" height="2247" viewBox="0 0 2247 2247" fill="none" xmlns="http://www.w3.org/2000/svg">
<path d="M722.809 388.485C790.445 418.075 856.703 500.765 905.209 552.469C1040.47 696.646 1158.3 868.713 1250.72 1043.55C1355.06 1240.93 1409.99 1489.8 1424.79 1711.76C1426.11 1731.6 1436.91 1827.31 1416.45 1775.78C1339.75 1582.53 1270.37 1389.07 1177.93 1202.27C1068.29 980.693 962.549 754.182 804.801 561.677C754.638 500.46 695.721 432.233 633.363 382.346C626.898 377.174 603.66 368.405 610.125 373.577C854.534 569.105 1068.59 786.962 1223.53 1061.08C1306.59 1208.04 1358.06 1367.83 1390.15 1532.87C1397.66 1571.49 1417.33 1604.4 1417.33 1643.36" stroke="#FE654F" stroke-width="10" stroke-linecap="round"/>
<path d="M1598.85 1296.1C1585.07 1409.15 1533.85 1518.36 1498.45 1625.82C1484.59 1667.9 1472.46 1710.63 1456.79 1752.1C1453.44 1760.98 1451.82 1793.52 1439.69 1792C1385.66 1785.25 1272.94 1687.71 1238.44 1666.16C1079.82 1567.09 917.678 1468.87 744.732 1396.51C723.969 1387.82 658.275 1373.3 680.717 1375.02C738.713 1379.48 803.985 1405.74 857.855 1422.38C986.554 1462.13 1139.5 1489.26 1245.45 1576.71C1280.83 1605.91 1326.46 1649 1366.03 1670.98C1376.69 1676.91 1399.85 1700.99 1413.39 1688.96C1447.68 1658.48 1463.71 1568.84 1482.22 1528.48C1508.12 1472.04 1545.54 1425.96 1576.93 1373.27C1588.63 1353.62 1594.93 1324.57 1611.13 1308.38C1616.87 1302.64 1624.42 1299.44 1629.55 1293.03C1660.34 1254.54 1587.08 1382.01 1566.41 1426.76C1501.91 1566.4 1433.73 1711.03 1395.41 1860.84C1391.39 1876.53 1391.16 1885.95 1385.76 1864.35" stroke="#FE654F" stroke-width="10" stroke-linecap="round"/>
</svg>
