<svg width="2247" height="2247" viewBox="0 0 2247 2247" fill="none" xmlns="http://www.w3.org/2000/svg">
<path d="M517.452 986.551C671.156 1076.21 836.797 1183.24 970.997 1280.23C1028.45 1321.75 1041.35 1348.69 1067.11 1361.69C1103.34 1379.98 1141.59 1316.67 1199.42 1255.53C1401.79 1041.62 1503.72 1009.45 1582.91 975.343C1623.39 957.904 1662.28 938.13 1678.58 933.181C1762.97 907.564 1527.21 1047.68 1465.35 1102.8C1408.89 1153.1 1371.56 1193.43 1339.2 1230.6C1275.9 1303.29 1216.3 1309.87 1169.39 1335.78C1147.8 1347.7 1048.82 1278.43 892.156 1150.78C682.995 1035.26 553.161 993.052 528.95 988.2C517.549 986.551 507.942 986.551 498.044 986.551" stroke="#FE654F" stroke-width="20" stroke-linecap="round"/>
<path d="M468.934 938.033C510.756 947.639 613.905 999.165 680.569 1033.32C779.977 1084.26 901.52 1199.25 971.773 1251.7C1013.07 1282.53 1041.35 1326.08 1060.71 1339.03C1098.1 1364.06 1205.63 1239.43 1291.85 1166.31C1379.67 1091.83 1426.1 1061.07 1540.74 980.389C1594.36 942.654 1633.27 921.925 1628.61 925.03C1510.35 1003.87 1449.19 1080.09 1407.08 1114.2C1377.8 1137.91 1364.96 1180.43 1340.75 1219.29C1303.54 1254.95 1277.63 1287.17 1246.97 1334.08C1238.82 1345.49 1232.41 1355.09 1206.41 1364.99" stroke="#FE654F" stroke-width="20" stroke-linecap="round"/>
</svg>
