<svg width="2247" height="731" viewBox="0 0 2247 731" fill="none" xmlns="http://www.w3.org/2000/svg">
<path d="M477.39 354.574C738.14 350.88 998.663 342.216 1259.23 353.666C1412.46 360.4 1566.3 358.239 1719.71 359.281C1758.23 359.543 1796.76 359.805 1835.28 360.066C1842.16 360.113 1862.55 361.95 1855.93 360.207C1831.72 353.829 1806.27 352.533 1781.4 348.921C1638.2 328.125 1495.2 308.195 1350.13 302.461C1235.31 297.922 1120.16 297.41 1005.28 293.9C894.33 290.51 785.563 294.741 675.047 305.752C602.014 313.029 529.184 322.495 455.858 326.651C437.708 327.68 383.267 329.859 401.342 327.939C450.407 322.727 500.808 321.678 549.98 321.901C732.404 322.729 914.318 337.759 1096.29 347.17C1227.74 353.968 1359.17 355.603 1490.74 359.384C1640.75 363.696 1790.43 371.945 1940.62 368.244" stroke="#FE654F" stroke-width="20" stroke-linecap="round"/>
<path d="M1579.94 606.062C1595.28 555.816 1720.01 482.174 1780.53 449.724C1838.66 418.555 1906.66 406.086 1837.85 360.992C1762.33 311.504 1669.64 274.754 1592.84 225.78C1569.72 211.04 1481.16 154.861 1493.26 164.278C1571.16 224.903 1669.35 275.356 1757.61 329.067C1782.34 344.118 1823.87 369.066 1855.76 377.424C1874.32 382.29 1830.04 357.352 1817.07 347.377C1776.16 315.903 1733.14 285.415 1696.72 251.602C1667.62 224.593 1625.32 196.05 1602.87 166.625C1597.99 160.227 1574.03 120.312 1582.81 134.7C1614.46 186.561 1710.17 230.637 1766.21 272.259C1802.22 299.008 1859.42 327.972 1888.71 356.766C1917.84 385.399 1917.39 386.519 1860.77 409.818C1784.49 441.208 1727.85 492.231 1664.48 533.762C1639.79 549.939 1621.95 579.622 1592.84 589.161" stroke="#FE654F" stroke-width="20" stroke-linecap="round"/>
<path d="M1502.57 555.358C1528.39 514.757 1633.91 479.168 1685.97 453.95C1732.68 431.325 1778.85 412.134 1825.67 391.039C1857.85 376.54 1917.62 344.09 1953.9 344.09" stroke="#FE654F" stroke-width="20" stroke-linecap="round"/>
<path d="M705.766 125C656.379 140.592 532.836 203.432 481.028 236.287C439.162 262.837 396.881 298.132 357.459 326.262C312.615 358.261 600.967 226.28 617.241 218.991C633.267 211.812 575.939 226.044 465.373 263.1C341.868 304.493 319.633 324.051 299.858 338.124C294.834 341.7 292.133 346.528 295.481 347.709C307.488 351.946 365.415 319.866 454.481 269.378C541.502 220.049 585.518 181.327 607.739 163.946C620.62 153.872 640.157 143.225 575.012 175.91C509.867 208.596 360.317 285.442 321.513 330.598C282.709 375.754 359.184 386.891 435.118 402.652C586.422 434.057 676.412 468.024 708.109 486.535C738.012 503.998 753.762 520.942 756.414 524.907C765.056 537.828 639.642 471.905 512.648 407.242C445.565 373.084 414.081 364.685 386.581 350.611C371.792 343.043 355.682 334.277 336.834 329.215C328.468 326.968 321.384 327.493 322.131 329.721C325.084 338.53 401.309 391.11 496.555 469.272C530.621 497.318 535.719 501.773 541.745 509.079C547.77 516.386 554.568 526.409 561.572 536.736" stroke="#FE654F" stroke-width="20" stroke-linecap="round"/>
</svg>
