<svg width="2247" height="2247" viewBox="0 0 2247 2247" fill="none" xmlns="http://www.w3.org/2000/svg">
<path d="M924.468 1710.18C1014.13 1556.48 1121.16 1390.84 1218.15 1256.64C1259.67 1199.18 1286.61 1186.28 1299.61 1160.52C1317.89 1124.29 1254.58 1086.05 1193.45 1028.21C979.54 825.846 947.368 723.908 913.26 644.727C895.821 604.243 876.047 565.352 871.098 549.05C845.481 464.665 985.6 700.425 1040.72 762.286C1091.02 818.742 1131.35 856.071 1168.51 888.432C1241.21 951.733 1247.79 1011.33 1273.7 1058.25C1285.62 1079.83 1216.35 1178.81 1088.7 1335.48C973.18 1544.64 930.969 1674.47 926.117 1698.68C924.468 1710.08 924.468 1719.69 924.468 1729.59" stroke="#FE654F" stroke-width="20" stroke-linecap="round"/>
<path d="M875.95 1758.7C885.556 1716.88 937.082 1613.73 971.239 1547.06C1022.17 1447.66 1137.17 1326.11 1189.62 1255.86C1220.45 1214.56 1264 1186.28 1276.95 1166.93C1301.97 1129.53 1177.34 1022 1104.23 935.787C1029.74 847.959 998.991 801.537 918.306 686.89C880.571 633.272 859.842 594.366 862.947 599.024C941.786 717.282 1018.01 778.443 1052.12 820.556C1075.83 849.833 1118.35 862.67 1157.21 886.88C1192.87 924.094 1225.08 950.002 1272 980.666C1283.4 988.817 1293.01 995.221 1302.91 1021.23" stroke="#FE654F" stroke-width="20" stroke-linecap="round"/>
</svg>
