<svg width="2247" height="2247" viewBox="0 0 2247 2247" fill="none" xmlns="http://www.w3.org/2000/svg">
<path d="M1241.08 579.536C1151.42 733.241 1044.39 898.881 947.402 1033.08C905.88 1090.54 878.943 1103.43 865.941 1129.2C847.655 1165.43 910.965 1203.67 972.098 1261.5C1186.01 1463.87 1218.18 1565.81 1252.29 1644.99C1269.73 1685.47 1289.5 1724.37 1294.45 1740.67C1320.07 1825.05 1179.95 1589.29 1124.83 1527.43C1074.53 1470.97 1034.2 1433.65 997.036 1401.28C924.34 1337.98 917.758 1278.39 891.849 1231.47C879.93 1209.89 949.197 1110.9 1076.85 954.24C1192.37 745.079 1234.58 615.245 1239.43 591.035C1241.08 579.633 1241.08 570.027 1241.08 560.129" stroke="#FE654F" stroke-width="20" stroke-linecap="round"/>
<path d="M1289.6 531.019C1279.99 572.841 1228.47 675.99 1194.31 742.654C1143.38 842.062 1028.38 963.604 975.931 1033.86C945.099 1075.16 901.553 1103.43 888.598 1122.79C863.577 1160.18 988.206 1267.71 1061.32 1353.93C1135.81 1441.76 1166.56 1488.18 1247.24 1602.83C1284.98 1656.45 1305.71 1695.35 1302.6 1690.69C1223.76 1572.44 1147.54 1511.27 1113.43 1469.16C1089.72 1439.88 1047.2 1427.05 1008.34 1402.84C972.68 1365.62 940.464 1339.72 893.547 1309.05C882.145 1300.9 872.539 1294.5 862.641 1268.49" stroke="#FE654F" stroke-width="20" stroke-linecap="round"/>
</svg>
