<svg width="1522" height="83" viewBox="0 0 1522 83" fill="none" xmlns="http://www.w3.org/2000/svg">
<path d="M84.0377 72.3849C339.143 66.7159 593.95 55.892 849.11 65.9341C999.159 71.8394 1149.67 68.5144 1299.81 68.5144C1337.51 68.5144 1375.21 68.5144 1412.92 68.5144C1419.65 68.5144 1439.63 70.2757 1433.13 68.5144C1409.33 62.0697 1384.41 60.9043 1360.02 57.3329C1219.56 36.769 1079.32 17.1033 937.272 12.1769C824.844 8.27765 712.153 8.5576 599.677 5.72602C491.052 2.99141 384.681 8.14711 276.703 20.348C205.348 28.4107 134.225 38.7434 62.5348 43.5711C44.7901 44.766 -8.45058 47.4103 9.20769 45.2913C57.1404 39.5394 106.446 38.0953 154.567 37.9803C333.095 37.5538 511.343 51.8638 689.559 60.3433C818.3 66.4688 946.941 67.2391 1075.75 70.2347C1222.61 73.65 1369.21 81.1527 1516.13 76.2555" stroke="#FE654F" stroke-width="10" stroke-linecap="round"/>
</svg>
