<svg width="308" height="1492" viewBox="0 0 308 1492" fill="none" xmlns="http://www.w3.org/2000/svg">
<path d="M262.197 77.7267C222.766 329.83 188.462 582.549 133.556 831.934C101.268 978.587 77.9843 1127.33 51.4936 1275.11C44.8414 1312.22 38.1892 1349.33 31.5371 1386.44C30.3483 1393.07 25.0896 1412.42 27.9707 1406.33C38.513 1384.05 44.0571 1359.72 51.8764 1336.34C96.9 1201.72 141.003 1067.14 170.914 928.198C194.589 818.222 214.197 707.249 236.83 597.037C258.688 490.599 272.381 384.988 279.424 276.551C284.077 204.893 286.456 133.063 294.353 61.6451C296.308 43.9679 303.099 -8.904 302.069 8.85112C299.273 57.0467 291.995 105.833 283.618 153.22C252.538 329.022 207.002 501.948 167.211 675.872C138.466 801.513 115.01 928 89.334 1054.26C60.0595 1198.21 26.808 1341.19 5.70622 1486.67" stroke="#FE654F" stroke-width="10" stroke-linecap="round"/>
</svg>
