<svg width="1080" height="1080" viewBox="0 0 1080 1080" fill="none" xmlns="http://www.w3.org/2000/svg">
<g clip-path="url(#clip0_3567_16)">
<path d="M1072.5 542.5C1072.5 836.309 834.098 1074.5 540 1074.5C245.902 1074.5 7.5 836.309 7.5 542.5C7.5 248.691 245.902 10.5 540 10.5C834.098 10.5 1072.5 248.691 1072.5 542.5Z" stroke="#FFFBF5" stroke-width="15"/>
<path d="M638 204L442.184 876.316" stroke="#FFFBF5" stroke-width="20"/>
<path d="M349.929 541.986C293.267 541.986 244.764 518.868 228.899 484.871L255.643 475.805C269.695 511.615 301.88 529.747 350.836 529.747C398.432 529.747 431.07 503.909 431.07 465.832C431.07 423.675 396.166 414.156 348.116 400.104C293.267 384.692 227.992 362.933 227.992 301.738C227.992 246.436 293.72 214.705 358.089 214.705C414.298 214.705 461.894 237.823 477.759 271.82L451.015 280.886C436.962 244.623 405.232 226.944 357.182 226.944C309.586 226.944 276.948 252.329 276.948 290.406C276.948 332.562 311.399 340.722 359.902 354.774C416.564 371.093 480.026 393.304 480.026 454.953C480.026 510.255 414.298 541.986 349.929 541.986Z" fill="#FFFBF5"/>
<path d="M604.099 858V540.691H653.055V692.093L837.547 540.691H857.039L674.813 690.28L861.119 858H797.204L653.055 728.357V858H604.099Z" fill="#FFFBF5"/>
</g>
<defs>
<clipPath id="clip0_3567_16">
<rect width="1080" height="1080" fill="white"/>
</clipPath>
</defs>
</svg>
